<svg id="face" xmlns="http://www.w3.org/2000/svg" viewBox="0 0 226 272"><defs><style>.cls-1{fill:#020202;}.cls-2{fill:#1a1615;opacity:0.79;}.cls-3{fill:#5b6059;opacity:0.4;}.cls-4{fill:#ee9d9c;opacity:0.92;}.cls-5,.cls-6{fill:#fff;}.cls-5,.cls-6,.cls-7{stroke:#000;stroke-miterlimit:10;}.cls-5{stroke-width:4px;}.cls-6,.cls-7{stroke-width:5px;}.cls-7{fill:none;}</style></defs><title>Title copy</title><path class="cls-1" d="M109.82,154.54a29,29,0,0,1,5.74,8.93c1.34,3.51,1,6.86-2,9.6-1.22,1.1-3.62,1.73-5.17,2.14a22.53,22.53,0,0,1-18.55-3.49c-1.6-1.09-3.1,1.51-1.51,2.59,7.67,5.23,18.64,6.49,26.75,1.35,9.2-5.83,2.27-17.24-3.12-23.24-1.29-1.44-3.41.69-2.12,2.12Z"/><path class="cls-2" d="M192.67,124.18c-2,0-9,10-14,0s-15-14-17-28-2-39-6-46-6-15-14-20-9-7-24-7-19-1-33,3-16,4-24,12-15,13-17,26-4,6-5,28,2,23,0,32-12,12-12,12c-6-11-9-12-9-16s-3-13,0-29,4-26,12-38,11-16,23-25,10-9,24-13,19-5,28-4,32,5,37,9,23,17,30,25,12,16,18,28,7,19,11,27,5,11,3,17S192.67,124.18,192.67,124.18Z"/><path class="cls-3" d="M34.17,159.68c10,15,6,15,7,25s0,15,5,25,14,28,23,31,25,17,32,19,15,2,24,0,9-5,18-14,20-18,24-26,5-9,11-21,8-13,11-22,3-2,0-17-3-11-4-24-7-12-7-12,4.5,43.5,3.5,47.5,1,7-9,18-1,8-10,9-9-2-13-6-7-13-7-9-1,4-2,9a105.41,105.41,0,0,0-2,16c0,6,1,7-6,11s-5,8-20,9-21,3-26-2-12-16-13-20-2-14-2-14l-9,6c-8.69,5.79-7-5-11-12a63.11,63.11,0,0,1-8-23c-1-8-3-12-3-15s-4-12-6-16-8,4-8,4Z"/><path class="cls-4" d="M74.67,187.18c6.39,6.68,10.67,12.11,16,13,6,1,19.67,1.13,24,0,6.18-1.62,4.31-.75,13-5,6-2.95,14-20,17-25-3,4-17,18-19,18h-17c-8,0-24,2-27,0s-17-15-17-15Z"/><ellipse class="cls-5" cx="76.67" cy="133.68" rx="23" ry="29.5" transform="translate(-24.55 17.47) rotate(-11.22)"/><ellipse class="cls-6" cx="133.67" cy="129.68" rx="29.5" ry="23" transform="translate(-30.7 217.25) rotate(-72.18)"/><path d="M77.83,142.35c11.58,0,11.6-18,0-18s-11.6,18,0,18Z"/><circle class="cls-7" cx="131.17" cy="139.68" r="6"/></svg>